<svg id="Illustration" xmlns="http://www.w3.org/2000/svg" xmlns:xlink="http://www.w3.org/1999/xlink" viewBox="0 0 2788.25 2800"><defs><style>.cls-1{fill:url(#linear-gradient);}.cls-2{opacity:0.3;}.cls-3{fill:#91b3fa;}.cls-4{fill:#bdd0fb;}.cls-5{fill:url(#linear-gradient-2);}.cls-6{fill:url(#linear-gradient-3);}.cls-7{fill:url(#linear-gradient-4);}.cls-8{fill:url(#linear-gradient-5);}.cls-9{fill:url(#linear-gradient-6);}.cls-10{fill:url(#linear-gradient-7);}.cls-11{fill:url(#linear-gradient-8);}.cls-12{fill:url(#linear-gradient-9);}.cls-13{fill:url(#linear-gradient-10);}.cls-14{fill:url(#linear-gradient-11);}.cls-15{fill:url(#linear-gradient-12);}.cls-16{fill:url(#linear-gradient-13);}.cls-17,.cls-21,.cls-55{fill:#fff;}.cls-17{opacity:0.6;}.cls-18{fill:url(#linear-gradient-14);}.cls-19{fill:url(#linear-gradient-15);}.cls-20{fill:url(#linear-gradient-16);}.cls-22{fill:url(#linear-gradient-17);}.cls-23{fill:url(#linear-gradient-18);}.cls-24{fill:url(#linear-gradient-19);}.cls-25{fill:url(#linear-gradient-20);}.cls-26{fill:url(#linear-gradient-21);}.cls-27{fill:url(#linear-gradient-22);}.cls-28{fill:url(#linear-gradient-23);}.cls-29{fill:url(#linear-gradient-24);}.cls-30{fill:url(#linear-gradient-25);}.cls-31{fill:url(#linear-gradient-26);}.cls-32{fill:url(#linear-gradient-27);}.cls-33{fill:url(#linear-gradient-28);}.cls-34{fill:url(#linear-gradient-29);}.cls-35{fill:url(#linear-gradient-30);}.cls-36{fill:url(#linear-gradient-31);}.cls-37{fill:url(#linear-gradient-32);}.cls-38{fill:url(#linear-gradient-33);}.cls-39{fill:url(#linear-gradient-34);}.cls-40{fill:url(#linear-gradient-35);}.cls-41{fill:url(#linear-gradient-36);}.cls-42{fill:url(#linear-gradient-37);}.cls-43{fill:url(#linear-gradient-38);}.cls-44{fill:url(#linear-gradient-39);}.cls-45{fill:url(#linear-gradient-40);}.cls-46{fill:url(#linear-gradient-41);}.cls-47{fill:url(#linear-gradient-42);}.cls-48{fill:url(#linear-gradient-43);}.cls-49{fill:url(#linear-gradient-44);}.cls-50{fill:url(#linear-gradient-45);}.cls-51{fill:url(#linear-gradient-46);}.cls-52{fill:url(#linear-gradient-47);}.cls-53{fill:url(#linear-gradient-48);}.cls-54{fill:url(#linear-gradient-49);}.cls-55{opacity:0.79;}.cls-56{fill:url(#linear-gradient-50);}.cls-57{fill:url(#linear-gradient-51);}.cls-58{fill:url(#linear-gradient-52);}.cls-59{fill:url(#linear-gradient-53);}.cls-60{fill:url(#linear-gradient-54);}.cls-61{fill:url(#linear-gradient-55);}.cls-62{fill:url(#linear-gradient-56);}.cls-63{fill:url(#linear-gradient-57);}.cls-64{fill:url(#linear-gradient-58);}.cls-65{fill:url(#linear-gradient-59);}.cls-66{fill:url(#linear-gradient-60);}.cls-67{fill:url(#linear-gradient-61);}.cls-68{fill:url(#linear-gradient-62);}.cls-69{fill:url(#linear-gradient-63);}.cls-70{fill:url(#linear-gradient-64);}.cls-71{fill:url(#linear-gradient-65);}.cls-72{fill:url(#linear-gradient-66);}.cls-73{fill:url(#linear-gradient-67);}</style><linearGradient id="linear-gradient" x1="3454.05" y1="3283.83" x2="1384.36" y2="1472.85" gradientUnits="userSpaceOnUse"><stop offset="0" stop-color="#dae3fe"/><stop offset="1" stop-color="#e9effd"/></linearGradient><linearGradient id="linear-gradient-2" x1="2581.38" y1="2417.81" x2="3027.87" y2="2417.81" xlink:href="#linear-gradient"/><linearGradient id="linear-gradient-3" x1="1796.01" y1="3028.02" x2="1662.42" y2="-926.3" gradientUnits="userSpaceOnUse"><stop offset="0" stop-color="#09005d"/><stop offset="1" stop-color="#1a0f91"/></linearGradient><linearGradient id="linear-gradient-4" x1="663.41" y1="2468.16" x2="2177.45" y2="3430.02" gradientUnits="userSpaceOnUse"><stop offset="0" stop-color="#a737d5"/><stop offset="1" stop-color="#ef497a"/></linearGradient><linearGradient id="linear-gradient-5" x1="2860.67" y1="488.57" x2="228.67" y2="4002.39" gradientUnits="userSpaceOnUse"><stop offset="0" stop-color="#4f52ff"/><stop offset="1" stop-color="#4042e2"/></linearGradient><linearGradient id="linear-gradient-6" x1="1175.18" y1="1234.58" x2="1729.72" y2="1234.58" xlink:href="#linear-gradient"/><linearGradient id="linear-gradient-7" x1="1832.98" y1="1034.81" x2="2387.01" y2="1034.81" xlink:href="#linear-gradient"/><linearGradient id="linear-gradient-8" x1="1832.98" y1="1116.17" x2="2387.01" y2="1116.17" xlink:href="#linear-gradient"/><linearGradient id="linear-gradient-9" x1="1832.98" y1="1198.71" x2="2387.01" y2="1198.71" xlink:href="#linear-gradient"/><linearGradient id="linear-gradient-10" x1="1832.98" y1="1292.65" x2="2387.01" y2="1292.65" xlink:href="#linear-gradient"/><linearGradient id="linear-gradient-11" x1="1832.98" y1="1385.33" x2="2387.01" y2="1385.33" xlink:href="#linear-gradient"/><linearGradient id="linear-gradient-12" x1="1181.95" y1="1596.68" x2="2437.37" y2="1596.68" xlink:href="#linear-gradient"/><linearGradient id="linear-gradient-13" x1="1181.95" y1="1678.04" x2="2437.37" y2="1678.04" xlink:href="#linear-gradient"/><linearGradient id="linear-gradient-14" x1="1379.25" y1="1863.19" x2="1691.37" y2="1863.19" xlink:href="#linear-gradient"/><linearGradient id="linear-gradient-15" x1="1779.97" y1="1868.82" x2="1953.51" y2="1868.82" xlink:href="#linear-gradient"/><linearGradient id="linear-gradient-16" x1="1990.77" y1="1863.19" x2="2302.89" y2="1863.19" xlink:href="#linear-gradient"/><linearGradient id="linear-gradient-17" x1="1222.19" y1="2143.53" x2="1350.62" y2="2143.53" xlink:href="#linear-gradient"/><linearGradient id="linear-gradient-18" x1="1435.04" y1="2149.04" x2="2438.64" y2="2149.04" xlink:href="#linear-gradient"/><linearGradient id="linear-gradient-19" x1="1607.6" y1="1557.27" x2="1277.38" y2="2136.01" gradientUnits="userSpaceOnUse"><stop offset="0" stop-color="#ff928e"/><stop offset="1" stop-color="#fe7062"/></linearGradient><linearGradient id="linear-gradient-20" x1="1222.19" y1="2365.53" x2="1350.62" y2="2365.53" xlink:href="#linear-gradient"/><linearGradient id="linear-gradient-21" x1="1435.04" y1="2371.04" x2="2438.64" y2="2371.04" xlink:href="#linear-gradient"/><linearGradient id="linear-gradient-22" x1="1703.16" y1="1611.8" x2="1372.93" y2="2190.54" xlink:href="#linear-gradient-19"/><linearGradient id="linear-gradient-23" x1="1222.19" y1="2587.53" x2="1350.62" y2="2587.53" xlink:href="#linear-gradient"/><linearGradient id="linear-gradient-24" x1="1435.04" y1="2593.04" x2="2438.64" y2="2593.04" xlink:href="#linear-gradient"/><linearGradient id="linear-gradient-25" x1="1798.72" y1="1666.32" x2="1468.49" y2="2245.06" xlink:href="#linear-gradient-19"/><linearGradient id="linear-gradient-26" x1="1222.19" y1="2809.53" x2="1350.62" y2="2809.53" xlink:href="#linear-gradient"/><linearGradient id="linear-gradient-27" x1="1435.04" y1="2815.04" x2="2438.64" y2="2815.04" xlink:href="#linear-gradient"/><linearGradient id="linear-gradient-28" x1="1894.27" y1="1720.85" x2="1564.05" y2="2299.59" xlink:href="#linear-gradient-19"/><linearGradient id="linear-gradient-29" x1="2005.34" y1="270" x2="1337.24" y2="1148.87" xlink:href="#linear-gradient-3"/><linearGradient id="linear-gradient-30" x1="2078.63" y1="325.71" x2="1410.53" y2="1204.58" xlink:href="#linear-gradient-3"/><linearGradient id="linear-gradient-31" x1="1994.43" y1="379.47" x2="1533.13" y2="1226.53" xlink:href="#linear-gradient-5"/><linearGradient id="linear-gradient-32" x1="16582.89" y1="-22153.99" x2="16296.92" y2="-21864.62" gradientTransform="matrix(-1, 0, 0, 1, -6477.44, 0)" xlink:href="#linear-gradient-5"/><linearGradient id="linear-gradient-33" x1="-7575.96" y1="1798.74" x2="-7396.97" y2="2205.97" gradientTransform="matrix(-1, 0, 0, 1, -6477.44, 0)" gradientUnits="userSpaceOnUse"><stop offset="0" stop-color="#febbba"/><stop offset="1" stop-color="#ff928e"/></linearGradient><linearGradient id="linear-gradient-34" x1="-7021.92" y1="3214.22" x2="-6939.77" y2="3214.22" gradientTransform="matrix(-1, 0, 0, 1, -6477.44, 0)" xlink:href="#linear-gradient-3"/><linearGradient id="linear-gradient-35" x1="-7369.06" y1="3538.18" x2="-7250.83" y2="2156.45" xlink:href="#linear-gradient-33"/><linearGradient id="linear-gradient-36" x1="-7403.59" y1="3199.22" x2="-7270.66" y2="3199.22" gradientTransform="matrix(-1, 0, 0, 1, -6477.44, 0)" xlink:href="#linear-gradient-3"/><linearGradient id="linear-gradient-37" x1="-7131.24" y1="3558.74" x2="-7012.99" y2="2176.64" xlink:href="#linear-gradient-33"/><linearGradient id="linear-gradient-38" x1="8480.12" y1="-20125.35" x2="7986.49" y2="-19430.86" gradientTransform="matrix(-1, 0, 0, 1, -6477.44, 0)" xlink:href="#linear-gradient-19"/><linearGradient id="linear-gradient-39" x1="8719.63" y1="-19955.12" x2="8225.99" y2="-19260.63" gradientTransform="matrix(-1, 0, 0, 1, -6477.44, 0)" xlink:href="#linear-gradient-19"/><linearGradient id="linear-gradient-40" x1="-7382.02" y1="2176.2" x2="-7359.81" y2="2013.74" xlink:href="#linear-gradient-33"/><linearGradient id="linear-gradient-41" x1="-7438.07" y1="1966.74" x2="-7244.31" y2="1621.9" xlink:href="#linear-gradient-33"/><linearGradient id="linear-gradient-42" x1="16462.43" y1="-22273.03" x2="16176.46" y2="-21983.66" gradientTransform="matrix(-1, 0, 0, 1, -6477.44, 0)" xlink:href="#linear-gradient-5"/><linearGradient id="linear-gradient-43" x1="-7396.83" y1="1989.91" x2="-7203.06" y2="1645.08" xlink:href="#linear-gradient-33"/><linearGradient id="linear-gradient-44" x1="-7624.09" y1="1785.24" x2="-7500.47" y2="2066.51" xlink:href="#linear-gradient-33"/><linearGradient id="linear-gradient-45" x1="865.19" y1="2192.67" x2="1253.28" y2="1970.25" gradientTransform="matrix(1, 0, 0, 1, 0, 0)" xlink:href="#linear-gradient-33"/><linearGradient id="linear-gradient-46" x1="-1306.18" y1="1843.91" x2="-1307.17" y2="2039.51" gradientTransform="matrix(-1, 0, 0, 1, -59.11, 0)" xlink:href="#linear-gradient-5"/><linearGradient id="linear-gradient-47" x1="1347.9" y1="1078.82" x2="975.14" y2="2237.94" xlink:href="#linear-gradient-19"/><linearGradient id="linear-gradient-48" x1="-1245.79" y1="1605.73" x2="-1222.23" y2="2354.27" gradientTransform="matrix(-1, 0, 0, 1, -59.11, 0)" gradientUnits="userSpaceOnUse"><stop offset="0" stop-color="#e1473d"/><stop offset="1" stop-color="#e9605a"/></linearGradient><linearGradient id="linear-gradient-49" x1="-1375.57" y1="1609.82" x2="-1352.01" y2="2358.36" xlink:href="#linear-gradient-48"/><linearGradient id="linear-gradient-50" x1="10305" y1="3090.58" x2="9783.77" y2="3657.53" gradientTransform="matrix(-1, 0.01, 0.01, 1, 12543.61, -63.47)" xlink:href="#linear-gradient-3"/><linearGradient id="linear-gradient-51" x1="10135.82" y1="3132.68" x2="10182.12" y2="3132.68" gradientTransform="matrix(-1, 0.01, 0.01, 1, 12543.61, -63.47)" xlink:href="#linear-gradient-33"/><linearGradient id="linear-gradient-52" x1="2936.85" y1="2192.44" x2="2606.63" y2="2600.96" xlink:href="#linear-gradient-5"/><linearGradient id="linear-gradient-53" x1="10188.07" y1="2983.06" x2="9666.82" y2="3550.04" gradientTransform="matrix(-1, 0.01, 0.01, 1, 12543.61, -63.47)" xlink:href="#linear-gradient-3"/><linearGradient id="linear-gradient-54" x1="9968.96" y1="3130.3" x2="10008.93" y2="3130.3" gradientTransform="matrix(-1, 0.01, 0.01, 1, 12543.61, -63.47)" xlink:href="#linear-gradient-33"/><linearGradient id="linear-gradient-55" x1="2979.46" y1="2226.88" x2="2649.24" y2="2635.4" xlink:href="#linear-gradient-5"/><linearGradient id="linear-gradient-56" x1="1910.03" y1="2772.21" x2="2441.11" y2="2234.33" xlink:href="#linear-gradient-19"/><linearGradient id="linear-gradient-57" x1="2263.41" y1="2082.5" x2="1936.59" y2="1837.38" gradientTransform="matrix(1, 0, 0, 1, 0, 0)" xlink:href="#linear-gradient-33"/><linearGradient id="linear-gradient-58" x1="2059.35" y1="1873.38" x2="1940.2" y2="1730.4" gradientTransform="matrix(1, 0, 0, 1, 0, 0)" xlink:href="#linear-gradient-33"/><linearGradient id="linear-gradient-59" x1="10561.8" y1="1764.87" x2="10628.03" y2="1663.04" gradientTransform="matrix(-1, 0.01, 0.01, 1, 12543.61, -63.47)" xlink:href="#linear-gradient-33"/><linearGradient id="linear-gradient-60" x1="1979.55" y1="2840.86" x2="2510.63" y2="2302.97" xlink:href="#linear-gradient-19"/><linearGradient id="linear-gradient-61" x1="9808.79" y1="2259.81" x2="10108.13" y2="2259.81" gradientTransform="matrix(-1, 0.01, 0.01, 1, 12543.61, -63.47)" xlink:href="#linear-gradient-33"/><linearGradient id="linear-gradient-62" x1="10038.65" y1="1939.8" x2="10157" y2="1939.8" gradientTransform="matrix(-1, 0.01, 0.01, 1, 12543.61, -63.47)" xlink:href="#linear-gradient-33"/><linearGradient id="linear-gradient-63" x1="9898.63" y1="2099.32" x2="10063.81" y2="2787.55" gradientTransform="matrix(-1, 0, 0, 1, 12275.32, 0)" xlink:href="#linear-gradient-3"/><linearGradient id="linear-gradient-64" x1="9785.45" y1="2281.39" x2="9879.04" y2="2281.39" gradientTransform="matrix(-1, 0, 0, 1, 12275.32, 0)" xlink:href="#linear-gradient-33"/><linearGradient id="linear-gradient-65" x1="2051.76" y1="2906.01" x2="1897.67" y2="3109.86" gradientTransform="matrix(-0.69, -0.73, -0.73, 0.69, 5962.79, 1318.79)" xlink:href="#linear-gradient-33"/><linearGradient id="linear-gradient-66" x1="1937.68" y1="2955.25" x2="2117.54" y2="2955.25" gradientTransform="matrix(-0.69, -0.73, -0.73, 0.69, 5962.79, 1318.79)" xlink:href="#linear-gradient-3"/><linearGradient id="linear-gradient-67" x1="1828.23" y1="3069.71" x2="1951.81" y2="2942.92" gradientTransform="matrix(-0.69, -0.73, -0.73, 0.69, 5962.79, 1318.79)" xlink:href="#linear-gradient-33"/></defs><path class="cls-1" d="M3102.31,2343.31c-267.48,629.82-980,982.65-1597.91,887.48-100.55-15.49-376.2-61.62-620.25-279.26-469.81-419-570.28-1248.6-191.3-1833.26C968.68,692.75,1463.14,451.53,1933,463.6c101.2,2.6,489.05,18.61,829.9,299.67,50.06,41.28,160.48,139.38,260,295C3256.55,1423.71,3276.64,1932.84,3102.31,2343.31Z" transform="translate(-460.87 -455)"/><g class="cls-2"><path class="cls-3" d="M838.11,920.75a8.07,8.07,0,0,1-8.47,7.64c-8.64-.45-17.43-.53-26.12-.24a8.05,8.05,0,0,1-8.32-7.63v-.16A8.06,8.06,0,0,1,803,912c9.15-.31,18.4-.23,27.49.24a8.16,8.16,0,0,1,7.64,8.47Zm-76.8,11.72c-8.57,1.48-17.15,3.33-25.53,5.51a8.06,8.06,0,1,1-4.06-15.6c8.8-2.3,17.84-4.25,26.85-5.8a8.07,8.07,0,0,1,9.32,6.58,7.86,7.86,0,0,1,.1,1A8.06,8.06,0,0,1,761.31,932.47Zm-65.71,19c-8,3.34-16,7.06-23.65,11.07a8.06,8.06,0,1,1-7.45-14.3c8.09-4.22,16.47-8.14,24.9-11.65A8.06,8.06,0,0,1,699.94,941a8.27,8.27,0,0,1,.61,2.68A8.06,8.06,0,0,1,695.6,951.52Zm-59.8,33.27c-7.07,5-14,10.45-20.59,16.08a8.06,8.06,0,1,1-10.46-12.27c7-5.93,14.24-11.62,21.67-16.93a8.06,8.06,0,0,1,9.38,13.12Zm-50.9,45.76c-5.75,6.47-11.31,13.28-16.51,20.24a8.07,8.07,0,1,1-12.92-9.66c5.48-7.32,11.33-14.48,17.38-21.29a8.06,8.06,0,0,1,11.38-.67,8.07,8.07,0,0,1,.67,11.38Zm-39.51,55.88c-4.18,7.6-8.09,15.46-11.62,23.39a8.06,8.06,0,1,1-14.73-6.56c3.71-8.34,7.83-16.62,12.23-24.61a8.06,8.06,0,0,1,15.11,3.47A7.91,7.91,0,0,1,545.39,1086.43Zm-7,299.32a8.06,8.06,0,0,1-10.87-3.44c-4.21-8.1-8.12-16.49-11.62-24.93a8.07,8.07,0,0,1,14.9-6.18c3.32,8,7,16,11,23.68a8,8,0,0,1,.9,3.28A8.08,8.08,0,0,1,538.41,1385.75Zm-19.13-236.11c-2.4,8.33-4.45,16.87-6.12,25.37a8.06,8.06,0,1,1-15.82-3.1c1.75-9,3.92-17.94,6.44-26.72a8.06,8.06,0,0,1,15.5,4.45Zm-7.71,171.16a8.06,8.06,0,0,1-9.83-5.78c-2.28-8.83-4.21-17.88-5.75-26.88a8.06,8.06,0,1,1,15.9-2.71c1.46,8.56,3.29,17.16,5.47,25.55a8.15,8.15,0,0,1,.24,1.6A8.06,8.06,0,0,1,511.57,1320.8Zm-3.63-103.71c-.47,8.65-.56,17.44-.29,26.11a8.06,8.06,0,0,1-16.11.68v-.17c-.3-9.13-.19-18.38.3-27.48a8.06,8.06,0,0,1,16.1,0C508,1216.51,508,1216.8,507.94,1217.09Z" transform="translate(-460.87 -455)"/><path class="cls-3" d="M573.28,1425.84a8,8,0,0,0-1.68-4.52c-2.55-3.28-5.07-6.67-7.5-10.08a8.07,8.07,0,0,0-13.13,9.37c2.56,3.58,5.21,7.15,7.89,10.6a8.06,8.06,0,0,0,14.42-5.37Z" transform="translate(-460.87 -455)"/></g><g class="cls-2"><path class="cls-3" d="M787.88,1545.7a8,8,0,0,0-7.19-7.58c-4.14-.44-8.33-1-12.46-1.59a8.06,8.06,0,1,0-2.38,16c4.36.64,8.78,1.21,13.13,1.67a8,8,0,0,0,8.9-8.45Z" transform="translate(-460.87 -455)"/><path class="cls-3" d="M1135.47,1233.16a8.06,8.06,0,1,1-16.12.06c0-8.48-.43-17.08-1.17-25.68a8.07,8.07,0,1,1,16.07-1.39c.32,3.73.58,7.44.77,11.15C1135.3,1222.58,1135.45,1227.92,1135.47,1233.16Zm-14.06-60.79a8.06,8.06,0,0,1-9.63-6.09c-1.89-8.34-4.14-16.69-6.71-24.81a8.06,8.06,0,0,1,15.38-4.86c2.7,8.56,5.07,17.35,7,26.12a7.18,7.18,0,0,1,.19,1.36A8.07,8.07,0,0,1,1121.41,1172.37ZM1132.62,1277c-1.19,8.89-2.79,17.85-4.73,26.63a8.07,8.07,0,0,1-15.75-3.49c1.85-8.34,3.36-16.85,4.5-25.29a8.06,8.06,0,0,1,16,.64A8.56,8.56,0,0,1,1132.62,1277Zm-32.07-170.56a8.05,8.05,0,0,1-10.74-3.83c-3.66-7.71-7.7-15.35-12-22.72a8.06,8.06,0,1,1,13.93-8.12c4.53,7.76,8.78,15.81,12.63,23.93a7.89,7.89,0,0,1,.77,3A8.07,8.07,0,0,1,1100.55,1106.45Zm14.91,239.3c-3.11,8.4-6.64,16.79-10.47,24.93a8.06,8.06,0,1,1-14.59-6.86c3.64-7.73,7-15.7,9.95-23.68a8.06,8.06,0,0,1,15.61,2.38A7.89,7.89,0,0,1,1115.46,1345.75Zm-31.81,63.31c-4.89,7.54-10.16,15-15.66,22a8.06,8.06,0,1,1-12.74-9.87c5.22-6.74,10.22-13.79,14.87-21a8.06,8.06,0,1,1,13.53,8.77Zm-44.86,54.88c-6.42,6.3-13.18,12.39-20.08,18.12a8.06,8.06,0,1,1-10.3-12.41c6.57-5.44,13-11.24,19.09-17.22a8.06,8.06,0,1,1,11.29,11.51ZM983,1507.73c-7.64,4.74-15.58,9.21-23.58,13.28a8.06,8.06,0,1,1-7.31-14.37c7.6-3.87,15.13-8.11,22.39-12.62a8.07,8.07,0,0,1,8.5,13.71Zm-64,30.47c-8.48,2.94-17.2,5.55-25.91,7.76a8.06,8.06,0,1,1-4-15.63c8.28-2.1,16.55-4.58,24.61-7.36a8.05,8.05,0,0,1,10.25,5,8.26,8.26,0,0,1,.44,2.21A8.08,8.08,0,0,1,919,1538.2Zm-69.11,15.66c-6.57.75-13.24,1.3-19.83,1.65-2.39.13-4.77.22-7.15.3a8,8,0,0,1-8.3-7.81,8.07,8.07,0,0,1,7.81-8.31q3.39-.11,6.79-.28c6.26-.33,12.6-.86,18.85-1.57a8.05,8.05,0,0,1,8.92,7.1,4,4,0,0,1,0,.49A8.06,8.06,0,0,1,849.87,1553.86Z" transform="translate(-460.87 -455)"/><path class="cls-3" d="M1068.63,1039.8a8,8,0,0,0-1.7-4.54c-2.7-3.44-5.51-6.88-8.38-10.23a8.06,8.06,0,1,0-12.26,10.46c2.72,3.19,5.39,6.46,8,9.72a8.06,8.06,0,0,0,14.39-5.41Z" transform="translate(-460.87 -455)"/></g><path class="cls-3" d="M931.43,1023.09a3.77,3.77,0,0,0-4.38-.05l-37.67,26.15a199.75,199.75,0,0,0-62.88-15.35L805.11,993.3a3.76,3.76,0,0,0-3.91-2l-54.37,8.41a3.78,3.78,0,0,0-3.13,3.06l-8.14,45.1a199.46,199.46,0,0,0-55.29,33.65L636.45,1068a3.77,3.77,0,0,0-4.15,1.38l-32.5,44.39a3.75,3.75,0,0,0,0,4.37l26.16,37.67a199.89,199.89,0,0,0-15.36,62.88L570,1240.1a3.75,3.75,0,0,0-2,3.91l8.41,54.36a3.77,3.77,0,0,0,3.06,3.13l45.1,8.14a199.66,199.66,0,0,0,33.65,55.3l-13.55,43.81a3.78,3.78,0,0,0,1.38,4.16l44.39,32.49a3.77,3.77,0,0,0,4.37.06l37.68-26.16a199.48,199.48,0,0,0,62.88,15.35l21.39,40.54a3.76,3.76,0,0,0,3.91,2l54.36-8.41a3.76,3.76,0,0,0,3.13-3.06l8.14-45.1a199.87,199.87,0,0,0,55.3-33.64l43.82,13.54a3.77,3.77,0,0,0,4.15-1.37l32.49-44.39a3.79,3.79,0,0,0,.06-4.38L996,1312.67a199.83,199.83,0,0,0,15.36-62.88l40.53-21.39a3.78,3.78,0,0,0,2-3.91l-8.42-54.37a3.75,3.75,0,0,0-3-3.13l-45.11-8.14a199.87,199.87,0,0,0-33.64-55.3l13.54-43.81a3.76,3.76,0,0,0-1.37-4.16Z" transform="translate(-460.87 -455)"/><path class="cls-4" d="M866,1239.42a55.26,55.26,0,1,1,.17-8.12A55.36,55.36,0,0,1,866,1239.42Zm-87.71,21.87a42.41,42.41,0,1,0-9.55-31,42.6,42.6,0,0,0-.13,6.28A42.06,42.06,0,0,0,778.3,1261.29Z" transform="translate(-460.87 -455)"/><path class="cls-4" d="M946,1228.23a139.44,139.44,0,0,0-1.44-13.89h0c-.23-1.46-.48-2.92-.75-4.37a137.63,137.63,0,0,0-5.7-21,2.31,2.31,0,0,1-.1-.28l-.3-.78c-.18-.52-.38-1-.57-1.54a3.23,3.23,0,0,0-3.18-2.06,2.93,2.93,0,0,0-1,.21,3.21,3.21,0,0,0-1.85,4.16,129.73,129.73,0,0,1-35.6,143.86,129.49,129.49,0,1,1-36.61-217.42,3.22,3.22,0,1,0,2.43-6,135.58,135.58,0,0,0-58.2-9.79q-6.89.36-13.74,1.42c-74.1,11.47-125,81.1-113.58,155.16a136,136,0,0,0,141.25,115A136.92,136.92,0,0,0,831,1369.5a136,136,0,0,0,115-141.27Z" transform="translate(-460.87 -455)"/><g class="cls-2"><path class="cls-3" d="M907.07,494.51a5,5,0,0,0-3.83-4.58c-4.11-1-8.31-1.84-12.48-2.57a5,5,0,1,0-1.71,9.81c4,.7,8,1.52,11.9,2.45a5,5,0,0,0,6-3.69A5.3,5.3,0,0,0,907.07,494.51Z" transform="translate(-460.87 -455)"/><path class="cls-3" d="M869.14,489.64a5,5,0,0,1-5.22,4.73,205,205,0,0,0-20.89,0c-1.46.07-2.93.17-4.4.28a5,5,0,0,1-5.33-4.6,5.16,5.16,0,0,1,4.61-5.34c1.53-.11,3.07-.21,4.6-.29,7.26-.38,14.63-.39,21.9,0a5,5,0,0,1,4.73,4.71A4.34,4.34,0,0,1,869.14,489.64Zm-55.57,8.44a205.34,205.34,0,0,0-24.45,6.42A5,5,0,0,1,786,495a216.16,216.16,0,0,1,25.64-6.73,5,5,0,0,1,5.85,3.92,4.18,4.18,0,0,1,.09.71A5,5,0,0,1,813.57,498.08ZM765.64,513.9a204.74,204.74,0,0,0-22.13,12.24,5,5,0,0,1-5.35-8.4,215,215,0,0,1,23.21-12.84,5,5,0,1,1,4.27,9ZM723.06,541A205.3,205.3,0,0,0,704.6,558.3a5,5,0,0,1-7.24-6.84,215.56,215.56,0,0,1,19.36-18.12,5,5,0,0,1,6.34,7.68Zm-34.67,36.69A210,210,0,0,0,674.68,599a5,5,0,1,1-8.68-4.88,218.15,218.15,0,0,1,14.37-22.26,5,5,0,0,1,8,5.9Zm-24.71,44a203.92,203.92,0,0,0-8.1,23.92A5,5,0,0,1,646,643a214.63,214.63,0,0,1,8.5-25.09,5,5,0,0,1,9.59,1.63A5.09,5.09,0,0,1,663.68,621.71Zm-13.19,48.68a203.48,203.48,0,0,0-2,25.2,5,5,0,1,1-10-.17A215.29,215.29,0,0,1,640.62,669a5,5,0,0,1,9.91.43A6.27,6.27,0,0,1,650.49,670.39Zm-.38,81.38a5,5,0,0,1-6-3.72,217.24,217.24,0,0,1-4-22.68c-.14-1.16-.27-2.31-.4-3.47a5,5,0,0,1,9.91-1c.11,1.09.24,2.17.38,3.28a205.13,205.13,0,0,0,3.82,21.66,4.34,4.34,0,0,1,.12.87A5,5,0,0,1,650.11,751.77Z" transform="translate(-460.87 -455)"/></g><g class="cls-2"><path class="cls-3" d="M1068.53,690.94A217.79,217.79,0,0,1,1068,717a5,5,0,1,1-9.93-.81,208.19,208.19,0,0,0,.52-24.86,5,5,0,0,1,9.94-.46Zm-6.73-20.25a5,5,0,0,1-5.7-4.12,209.82,209.82,0,0,0-5.42-24.29,5,5,0,1,1,9.57-2.75,219,219,0,0,1,5.68,25.45,5,5,0,0,1-4.13,5.71Zm2.48,72.13a216.89,216.89,0,0,1-6.83,25.17,5,5,0,0,1-9.44-3.19,207.85,207.85,0,0,0,6.52-24,5,5,0,0,1,9.84.75A4.59,4.59,0,0,1,1064.28,742.82Zm-15.39-121.34a5,5,0,0,1-6.53-2.63,204.39,204.39,0,0,0-11.12-22.26,5,5,0,1,1,8.62-5,215,215,0,0,1,11.66,23.33,5.18,5.18,0,0,1,.39,1.69A5,5,0,0,1,1048.89,621.48Zm-1.27,170.64a217.39,217.39,0,0,1-12.68,22.78,5,5,0,0,1-8.4-5.36,203.07,203.07,0,0,0,12.09-21.73,5,5,0,0,1,9,4.31Zm-28,43.87a218.42,218.42,0,0,1-17.76,19.1,5,5,0,1,1-6.87-7.21,208.73,208.73,0,0,0,16.95-18.22,5,5,0,0,1,8.81,2.91A4.92,4.92,0,0,1,1019.61,836Zm-37.7,35.91a215.48,215.48,0,0,1-21.84,14.28,5,5,0,0,1-4.93-8.65A204.37,204.37,0,0,0,976,863.91a5,5,0,0,1,7,1,4.88,4.88,0,0,1,1,2.71A5,5,0,0,1,981.91,871.9Z" transform="translate(-460.87 -455)"/><path class="cls-3" d="M1026.3,572.41a5,5,0,0,0-1-2.74c-2.57-3.4-5.25-6.73-8-9.92a5,5,0,1,0-7.58,6.46c2.59,3,5.15,6.23,7.61,9.47a5,5,0,0,0,8.94-3.27Z" transform="translate(-460.87 -455)"/></g><path class="cls-3" d="M932.57,558.18a2.51,2.51,0,0,0-2.92,0l-25.21,17.5a133.31,133.31,0,0,0-42.08-10.27l-14.31-27.13a2.53,2.53,0,0,0-2.62-1.31l-36.38,5.63a2.51,2.51,0,0,0-2.09,2l-5.45,30.18a133.64,133.64,0,0,0-37,22.52l-29.32-9.07a2.51,2.51,0,0,0-2.78.92l-21.74,29.71a2.51,2.51,0,0,0,0,2.92L728.13,647a133.86,133.86,0,0,0-10.27,42.08l-27.13,14.31a2.53,2.53,0,0,0-1.31,2.62l5.63,36.38a2.51,2.51,0,0,0,2,2.09l30.19,5.45a133.62,133.62,0,0,0,22.51,37l-9.07,29.32a2.54,2.54,0,0,0,.92,2.78l29.71,21.74a2.52,2.52,0,0,0,2.93,0l25.21-17.5a133.86,133.86,0,0,0,42.07,10.27l14.32,27.13a2.5,2.5,0,0,0,2.61,1.31l36.38-5.63a2.52,2.52,0,0,0,2.1-2l5.44-30.19a133.47,133.47,0,0,0,37-22.51l29.32,9.07a2.54,2.54,0,0,0,2.78-.92l21.75-29.71a2.52,2.52,0,0,0,0-2.93L975.79,752a133.6,133.6,0,0,0,10.28-42.07l27.12-14.32a2.5,2.5,0,0,0,1.31-2.61l-5.63-36.38a2.52,2.52,0,0,0-2-2.1L976.65,649a133.85,133.85,0,0,0-22.51-37l9.06-29.32a2.51,2.51,0,0,0-.92-2.78Z" transform="translate(-460.87 -455)"/><path class="cls-4" d="M889.46,703a37.46,37.46,0,1,1,.12-5.58A38.61,38.61,0,0,1,889.46,703Zm-40.09,24.06a27.69,27.69,0,0,0,30.18-25h0a27.71,27.71,0,0,0-55.18-5.19,29.23,29.23,0,0,0-.08,4.07A27.75,27.75,0,0,0,849.37,727.06Z" transform="translate(-460.87 -455)"/><path class="cls-4" d="M945.13,695.21a94.29,94.29,0,0,0-5.8-28l-.3-.81a5,5,0,0,0-4.91-3.19,4.82,4.82,0,0,0-1.52.33,5,5,0,0,0-2.87,6.43,83.91,83.91,0,0,1,4.58,17.25h0c.05.33.09.65.14,1a83,83,0,0,1-4.28,40.83A84.46,84.46,0,0,1,919.55,749l-.11.15-.33.46a83.35,83.35,0,0,1-54.84,33.34c-2.86.44-5.73.74-8.58.89A83.86,83.86,0,1,1,883,622.37a5,5,0,1,0,3.75-9.23,93.55,93.55,0,0,0-40.16-6.75,92,92,0,0,0-9.48,1,93.81,93.81,0,0,0,19.09,186.4,95,95,0,0,0,9.6-1A93.94,93.94,0,0,0,945.13,695.21Z" transform="translate(-460.87 -455)"/><path class="cls-3" d="M3028.69,674.72c4.26-13.15-11.08-24-22.16-15.7-112.57,84-389.46,342.19-385.37,849,5.12,635.81-151.53,849.79-330,970.89,0,0,230.77-40.25,397.67-256.48C3098.59,1691.49,2952.9,908.63,3028.69,674.72Z" transform="translate(-460.87 -455)"/><path class="cls-4" d="M2929,861.8c-20.66,68.37-40,137.1-56.72,206.45q-25.68,103.88-45,209.08c-12.55,70.15-23.78,140.51-32,211.26-8.54,70.7-14,141.69-19.31,213-5.66,71.22-11,143-23.63,214.46s-33.86,142.29-67.49,207.26c-8.4,16.19-17.13,32.29-26.71,47.71-9.31,15.61-19.31,30.81-29.58,45.83a778.06,778.06,0,0,1-68.14,85.35c-49.62,53.48-107.34,99.37-169.42,136.69a13.8,13.8,0,0,1-14.57-23.44l0,0c14.84-9.51,29.56-19.17,43.79-29.46,7.2-5,14.17-10.37,21.23-15.58,6.85-5.46,13.92-10.67,20.6-16.34a729.18,729.18,0,0,0,76.16-72.22c47.37-51.47,87.3-110.28,119.53-172.29a695.08,695.08,0,0,0,40.13-96.73,788.14,788.14,0,0,0,25.65-102c12.83-69.29,18.66-140.3,24.84-211.48s13.06-142.67,22.78-213.77q7.14-53.34,16.2-106.39c2.91-17.69,6.17-35.32,9.39-53q5.1-26.42,10.52-52.75,22-105.27,50.45-209c19.31-69,40.45-137.44,64.18-205a3.7,3.7,0,0,1,7,2.3Z" transform="translate(-460.87 -455)"/><path class="cls-4" d="M2550.53,2964.49c4.42,25.09,33,37.52,54.57,23.9,118.81-75.16,435.53-318,492.87-800,48.42-407,113.35-623.06,149.63-719.11,7.67-20.31-15-38.61-33.28-26.82C3013.15,1572.51,2390.38,2055.21,2550.53,2964.49Z" transform="translate(-460.87 -455)"/><path class="cls-5" d="M2584.48,2970.63a9.35,9.35,0,0,0,1.52,1.18,9.94,9.94,0,0,0,13.73-3.06c3.34-5.25,335.12-532.09,428-1094.93a9.95,9.95,0,0,0-19.63-3.24c-92.21,558.74-421.84,1082.28-425.16,1087.5A10,10,0,0,0,2584.48,2970.63Z" transform="translate(-460.87 -455)"/><path class="cls-6" d="M856.15,944.74A170.8,170.8,0,0,1,1027,773.94h1452.5a150.48,150.48,0,0,1,150.29,142.82L2737,3022.62a111,111,0,0,1-108.8,116.59L963.39,3169.47a105.33,105.33,0,0,1-107.24-105.31Z" transform="translate(-460.87 -455)"/><path class="cls-3" d="M1206.7,3133.67h0l-186.28-2.41c-62.28-.81-113-52.14-113-114.43V2735.59a4,4,0,0,1,8,0v281.24c0,58,47.15,105.72,105.11,106.48l186.27,2.41a4,4,0,0,1,0,8Z" transform="translate(-460.87 -455)"/><path class="cls-7" d="M911.39,2652.45a4,4,0,0,1-4-4v-45.54a4,4,0,1,1,8,0v45.54A4,4,0,0,1,911.39,2652.45Z" transform="translate(-460.87 -455)"/><path class="cls-8" d="M975.15,806.35a49.6,49.6,0,0,1,56.27-49.48c198.35,26.9,880.43,110.09,1444.37,66.8a45.86,45.86,0,0,1,49.4,43.27l112.42,2115.24A52.79,52.79,0,0,1,2588,3037.7c-237.19,14-1214,68.3-1562.38,31.8a41.82,41.82,0,0,1-37.42-41.39Z" transform="translate(-460.87 -455)"/><path class="cls-4" d="M998.51,859.36a47.74,47.74,0,0,1,54.15-47.62c190.89,25.88,847.28,105.94,1390,64.28a44.15,44.15,0,0,1,47.54,41.64l108.19,2035.59a50.81,50.81,0,0,1-47.73,53.43c-228.25,13.51-1168.26,65.73-1503.55,30.61a40.26,40.26,0,0,1-36-39.84Z" transform="translate(-460.87 -455)"/><path class="cls-9" d="M1175.21,1016.3l20.28,436.41a27.73,27.73,0,0,0,26.92,26.46c80.83,2.28,332.68,8.43,474.88,1a31,31,0,0,0,29.34-30c2.72-81.84,8.65-320-10-419.63a35,35,0,0,0-33.19-28.44l-477.73-16.71A29.51,29.51,0,0,0,1175.21,1016.3Z" transform="translate(-460.87 -455)"/><path class="cls-10" d="M2372,1054.29c8.48,0,15.22-6.59,15-14.64s-7.37-14.77-15.84-14.92l-527.07-9.39c-8.47-.15-13.11,6.27-10.29,14.27l3.57,10.13c2.82,8,12.06,14.55,20.54,14.55Z" transform="translate(-460.87 -455)"/><path class="cls-11" d="M1844.09,1096.7c-8.47-.15-13.11,6.27-10.29,14.27l3.57,10.13c2.82,8,12.06,14.54,20.54,14.54H2372c8.48,0,15.22-6.58,15-14.64s-7.37-14.76-15.84-14.91Z" transform="translate(-460.87 -455)"/><path class="cls-12" d="M1844.09,1179.24c-8.47-.15-13.11,6.27-10.29,14.26l3.57,10.14c2.82,8,12.06,14.54,20.54,14.54H2372c8.48,0,15.22-6.58,15-14.64s-7.37-14.76-15.84-14.91Z" transform="translate(-460.87 -455)"/><path class="cls-13" d="M1844.09,1273.18c-8.47-.15-13.11,6.27-10.29,14.27l3.57,10.13c2.82,8,12.06,14.55,20.54,14.55H2372c8.48,0,15.22-6.59,15-14.64s-7.37-14.77-15.84-14.92Z" transform="translate(-460.87 -455)"/><path class="cls-14" d="M1844.09,1365.86c-8.47-.15-13.11,6.27-10.29,14.27l3.57,10.14c2.82,8,12.06,14.54,20.54,14.54H2372c8.48,0,15.22-6.59,15-14.64s-7.37-14.77-15.84-14.92Z" transform="translate(-460.87 -455)"/><path class="cls-15" d="M2422.89,1616.23c8.48,0,15-6.58,14.45-14.64s-7.9-14.69-16.38-14.76l-1230.47-9.7c-8.48-.06-11.09,5.31-5.81,11.94l12,15.1c5.28,6.64,16.54,12.06,25,12.06Z" transform="translate(-460.87 -455)"/><path class="cls-16" d="M1190.49,1658.49c-8.48-.07-11.09,5.31-5.81,11.94l12,15.1c5.28,6.63,16.54,12.06,25,12.06H2422.89c8.48,0,15-6.59,14.45-14.64s-7.9-14.69-16.38-14.76Z" transform="translate(-460.87 -455)"/><path class="cls-17" d="M1186.55,1794.34c29.51-2.26,84.77-3.31,115.19-3.73a27.56,27.56,0,0,1,27.21,21.08c5.87,24.34,14,66.6,13,111.37a24.48,24.48,0,0,1-24.7,24L1205,1945.82a27,27,0,0,1-26.55-24.45l-9.87-105.59A19.64,19.64,0,0,1,1186.55,1794.34Z" transform="translate(-460.87 -455)"/><path class="cls-18" d="M1392.53,1837.64c-8.47-.36-14.37,6.21-13.11,14.6l3.19,21.26a18.52,18.52,0,0,0,17.71,15.25h275.82a15.24,15.24,0,0,0,15.23-15.41l-.1-7.81a16.51,16.51,0,0,0-15.6-16.06Z" transform="translate(-460.87 -455)"/><path class="cls-19" d="M1798.08,1794.34c29.5-2.26,84.76-3.31,115.18-3.73a27.58,27.58,0,0,1,27.22,21.08c5.87,24.34,14,66.6,13,111.37a24.49,24.49,0,0,1-24.71,24l-112.25-1.21a27,27,0,0,1-26.54-24.45l-9.87-105.59A19.64,19.64,0,0,1,1798.08,1794.34Z" transform="translate(-460.87 -455)"/><path class="cls-20" d="M2004.06,1837.64c-8.47-.36-14.38,6.21-13.12,14.6l3.2,21.26a18.52,18.52,0,0,0,17.71,15.25h275.81a15.23,15.23,0,0,0,15.23-15.41l-.1-7.81a16.5,16.5,0,0,0-15.59-16.06Z" transform="translate(-460.87 -455)"/><path class="cls-21" d="M1344.93,2213.31h-.28l-103.58-1c-14.8-.15-27-10.33-28.42-23.69l-9.1-86.9a18.87,18.87,0,0,1,4.46-14.21,22.74,22.74,0,0,1,15.85-7.82h0c8.72-.59,21-1.64,34-2.75,27.4-2.33,61.49-5.23,80.68-5.47,13.92-.07,25.72,8.16,29,20.28,5.4,19.95,4.92,57.72,3.9,97.95C1371.12,2202.78,1359.25,2213.31,1344.93,2213.31ZM1224.4,2087.64a14.71,14.71,0,0,0-10.3,5,11,11,0,0,0-2.64,8.25l9.1,86.91c1,9.34,9.83,16.46,20.59,16.56l103.58,1h.2c10,0,18.35-7.08,18.58-15.85,1-39.62,1.49-76.75-3.63-95.67-2.29-8.48-11.11-14.38-21.22-14.41-18.9.24-52.83,3.13-80.1,5.45-13,1.11-25.37,2.16-34.16,2.76Z" transform="translate(-460.87 -455)"/><path class="cls-22" d="M1235.54,2096.61c21.76-1.49,69.06-6.29,91.49-6.57,9.5-.12,17.84,5.62,20.07,13.87,4.32,16,3.75,47.91,3,77.35-.23,8.82-8.33,15.86-18.22,15.77l-82.77-.8c-10.18-.09-18.63-7-19.58-16.07l-7.27-69.45C1221.5,2103.52,1227.48,2097.16,1235.54,2096.61Z" transform="translate(-460.87 -455)"/><path class="cls-23" d="M1435.91,2155.6a25.72,25.72,0,0,0,25.09,19.16l958.36-8.17a19.45,19.45,0,0,0-.08-38.89l-958.39-4.38A25.72,25.72,0,0,0,1435.91,2155.6Z" transform="translate(-460.87 -455)"/><path class="cls-24" d="M1240,2110.24h0a15.9,15.9,0,0,1,21.93,6l20.43,36.63a5.11,5.11,0,0,0,9.12-.4l50.67-112.81a5.66,5.66,0,0,1,10.82,2.44c-.52,34.51-9.68,100.1-64.81,155,0,0-30.39-11.81-54.86-65.55A16.68,16.68,0,0,1,1240,2110.24Z" transform="translate(-460.87 -455)"/><path class="cls-21" d="M1344.93,2435.31h-.28l-103.58-1c-14.8-.14-27-10.32-28.42-23.68l-9.1-86.91a18.86,18.86,0,0,1,4.46-14.2,22.74,22.74,0,0,1,15.85-7.82h0c8.72-.59,21-1.64,34-2.75,27.4-2.33,61.49-5.24,80.68-5.48h.41c13.63,0,25.34,8.3,28.59,20.29,5.4,19.95,4.92,57.72,3.9,97.95C1371.12,2424.77,1359.25,2435.31,1344.93,2435.31ZM1224.4,2309.64a14.71,14.71,0,0,0-10.3,5,11,11,0,0,0-2.64,8.25l9.1,86.91c1,9.34,9.83,16.45,20.59,16.56l103.58,1h.2c10,0,18.35-7.07,18.58-15.85,1-39.62,1.49-76.74-3.63-95.66-2.29-8.48-11.24-14.57-21.22-14.41-18.9.23-52.83,3.12-80.1,5.45-13,1.11-25.37,2.16-34.16,2.76Z" transform="translate(-460.87 -455)"/><path class="cls-25" d="M1235.54,2318.61c21.76-1.49,69.06-6.29,91.49-6.57,9.5-.12,17.84,5.62,20.07,13.86,4.32,16,3.75,47.92,3,77.36-.23,8.82-8.33,15.86-18.22,15.77l-82.77-.8c-10.18-.1-18.63-7-19.58-16.08l-7.27-69.45C1221.5,2325.52,1227.48,2319.16,1235.54,2318.61Z" transform="translate(-460.87 -455)"/><path class="cls-26" d="M1435.91,2377.6a25.72,25.72,0,0,0,25.09,19.16l958.36-8.17a19.45,19.45,0,0,0-.08-38.9l-958.39-4.37A25.72,25.72,0,0,0,1435.91,2377.6Z" transform="translate(-460.87 -455)"/><path class="cls-27" d="M1240,2332.24h0a15.89,15.89,0,0,1,21.93,6l20.43,36.62a5.11,5.11,0,0,0,9.12-.39l50.67-112.81a5.66,5.66,0,0,1,10.82,2.44c-.52,34.51-9.68,100.1-64.81,155,0,0-30.39-11.82-54.86-65.55A16.68,16.68,0,0,1,1240,2332.24Z" transform="translate(-460.87 -455)"/><path class="cls-21" d="M1344.93,2657.3h-.28l-103.58-1c-14.8-.14-27-10.32-28.42-23.68l-9.1-86.91a18.86,18.86,0,0,1,4.46-14.2,22.74,22.74,0,0,1,15.85-7.82h0c8.72-.6,21-1.65,34-2.75,27.4-2.34,61.49-5.24,80.68-5.48h.41c13.63,0,25.34,8.29,28.59,20.29,5.4,19.95,4.92,57.71,3.9,97.94C1371.12,2646.77,1359.25,2657.3,1344.93,2657.3ZM1224.4,2531.63a14.72,14.72,0,0,0-10.3,5,11,11,0,0,0-2.64,8.25l9.1,86.91c1,9.34,9.83,16.46,20.58,16.56l103.59,1h.2c10,0,18.35-7.07,18.58-15.85,1-39.62,1.49-76.75-3.63-95.67-2.29-8.47-11.24-14.6-21.22-14.41-18.9.24-52.83,3.13-80.1,5.45-13,1.11-25.37,2.16-34.16,2.76Z" transform="translate(-460.87 -455)"/><path class="cls-28" d="M1235.54,2540.6c21.76-1.48,69.06-6.28,91.49-6.56,9.5-.12,17.84,5.62,20.07,13.86,4.32,16,3.75,47.91,3,77.36-.23,8.82-8.33,15.86-18.22,15.76l-82.77-.79c-10.18-.1-18.63-7-19.58-16.08l-7.27-69.45C1221.5,2547.52,1227.48,2541.16,1235.54,2540.6Z" transform="translate(-460.87 -455)"/><path class="cls-29" d="M1435.91,2599.6a25.72,25.72,0,0,0,25.09,19.16l958.36-8.17a19.45,19.45,0,0,0-.08-38.9l-958.39-4.37A25.72,25.72,0,0,0,1435.91,2599.6Z" transform="translate(-460.87 -455)"/><path class="cls-30" d="M1240,2554.23h0a15.9,15.9,0,0,1,21.93,6l20.43,36.62a5.11,5.11,0,0,0,9.12-.39l50.67-112.82a5.66,5.66,0,0,1,10.82,2.45c-.52,34.5-9.68,100.1-64.81,155,0,0-30.39-11.81-54.86-65.54A16.69,16.69,0,0,1,1240,2554.23Z" transform="translate(-460.87 -455)"/><path class="cls-21" d="M1344.93,2879.3h-.28l-103.58-1c-14.8-.14-27-10.32-28.42-23.68l-9.1-86.91a18.85,18.85,0,0,1,4.46-14.2,22.75,22.75,0,0,1,15.85-7.83h0c8.72-.59,21-1.64,34-2.75,27.4-2.33,61.49-5.23,80.68-5.47h.41c13.63,0,25.34,8.3,28.59,20.3,5.4,19.95,4.92,57.71,3.9,97.94C1371.12,2868.77,1359.25,2879.3,1344.93,2879.3ZM1224.4,2753.63a14.75,14.75,0,0,0-10.3,5,11,11,0,0,0-2.64,8.26l9.1,86.91c1,9.33,9.83,16.45,20.58,16.55l103.59,1h.2c10,0,18.35-7.07,18.58-15.85,1-39.62,1.49-76.75-3.63-95.67-2.29-8.47-11.24-14.63-21.22-14.41-18.9.24-52.83,3.13-80.1,5.45-13,1.11-25.37,2.16-34.16,2.76Z" transform="translate(-460.87 -455)"/><path class="cls-31" d="M1235.54,2762.6c21.76-1.49,69.06-6.29,91.49-6.57,9.5-.11,17.84,5.63,20.07,13.87,4.32,16,3.75,47.91,3,77.36-.23,8.82-8.33,15.86-18.22,15.76l-82.77-.79c-10.18-.1-18.63-7-19.58-16.08l-7.27-69.45C1221.5,2769.52,1227.48,2763.15,1235.54,2762.6Z" transform="translate(-460.87 -455)"/><path class="cls-32" d="M1435.91,2821.6h0a25.71,25.71,0,0,0,25.09,19.15l958.36-8.17a19.45,19.45,0,0,0-.08-38.89l-958.39-4.37A25.72,25.72,0,0,0,1435.91,2821.6Z" transform="translate(-460.87 -455)"/><path class="cls-33" d="M1240,2776.23h0a15.9,15.9,0,0,1,21.93,6l20.43,36.62a5.11,5.11,0,0,0,9.12-.39l50.67-112.82a5.66,5.66,0,0,1,10.82,2.44c-.52,34.51-9.68,100.11-64.81,155,0,0-30.39-11.81-54.86-65.54A16.69,16.69,0,0,1,1240,2776.23Z" transform="translate(-460.87 -455)"/><path class="cls-34" d="M1843.29,486.81c-52.47-36.5-98.09-35.77-130.2-26.3a64.06,64.06,0,0,0-45.5,67.35L1681.44,679l164.8,14.62S1946.18,558.4,1843.29,486.81Zm-72.48,122a41.1,41.1,0,1,1,41.1-41.09A41.09,41.09,0,0,1,1770.81,608.77Z" transform="translate(-460.87 -455)"/><path class="cls-4" d="M1697.9,615.44a4,4,0,0,1-4-3.62l-2.21-24.07a4,4,0,0,1,3.6-4.33,3.94,3.94,0,0,1,4.32,3.6l2.2,24.08a4,4,0,0,1-3.59,4.32Zm-4.32-47.18a4,4,0,0,1-4-3.62L1688,546.37a61.15,61.15,0,0,1,43.35-64.16,123.27,123.27,0,0,1,60.23-2.47,4,4,0,1,1-1.6,7.79,115.42,115.42,0,0,0-56.38,2.31,53.18,53.18,0,0,0-37.68,55.8l1.67,18.28a4,4,0,0,1-3.59,4.32Z" transform="translate(-460.87 -455)"/><path class="cls-35" d="M1456.51,776.72v-76a46.39,46.39,0,0,1,48-46.36l524,18A45.09,45.09,0,0,1,2072,714.7l4.38,73Z" transform="translate(-460.87 -455)"/><path class="cls-4" d="M1651.9,683h-22.54a4,4,0,0,1,0-8h22.54a4,4,0,1,1,0,8Z" transform="translate(-460.87 -455)"/><path class="cls-4" d="M1484.87,752.85a4,4,0,0,1-4-4V718.13A43.12,43.12,0,0,1,1524,675.05h82.85a4,4,0,0,1,0,8H1524a35.17,35.17,0,0,0-35.13,35.13v30.75A4,4,0,0,1,1484.87,752.85Z" transform="translate(-460.87 -455)"/><path class="cls-36" d="M1243,795.91a49.38,49.38,0,0,1,49.32-47l916.32,0a67.73,67.73,0,0,1,66.74,56.17l.77,4.48a58.16,58.16,0,0,1-57.31,68.09H1278.75A37.81,37.81,0,0,1,1241,838Z" transform="translate(-460.87 -455)"/><path class="cls-37" d="M841.2,1789.06s-32.66,15.89-38.67,34.14c-4.82,14.64-40.93,16.53-44.5,45.33-1.84,14.87-12.85,26.78-27.66,29-36.88,5.65-93.72,24.8-102.82,88.85-6.94,48.88,18,67.41,44.13,73.83,19.21,4.71,32,23.39,28.09,42.78-3.73,18.6,1.83,40.11,34.05,57.11,72.21,38.1,144.32-90.27,144.32-90.27l14.78-224.14Z" transform="translate(-460.87 -455)"/><path class="cls-38" d="M1181.11,1670.86s-92.92,253.29-251.24,332.46c0,0,52.7,86,80.19,91.19,0,0,169.13-216.46,186.37-393.81Z" transform="translate(-460.87 -455)"/><path class="cls-39" d="M544.39,3194.51l-4.68,38.42a15.85,15.85,0,0,1-13.92,13.88c-12.31,1.41-32.07,2.85-51.41.81A13.6,13.6,0,0,1,463,3230c4.72-14.83,13.34-37.09,25.77-50.19h42.61A13.13,13.13,0,0,1,544.39,3194.51Z" transform="translate(-460.87 -455)"/><path class="cls-40" d="M878.14,2744.52l7.2,42.31s-24.09,244-28.37,341.56a76.39,76.39,0,0,0,11.31,43.46l41.88,68-106.44-62.81-2.12-13,17.43-24-22.82-273.3a83.85,83.85,0,0,1,9.54-46.38l22-41.36Z" transform="translate(-460.87 -455)"/><path class="cls-41" d="M917.17,3249.71h-34a20.46,20.46,0,0,1-16.24-8c-10.58-13.76-32.52-40.6-43-41.3-14.13-.94-12.32,49.26-12.32,49.26h-7.92l-10-62.38a36.93,36.93,0,0,1,19.38-38.61s3.22,23.88,20.73,34.44S905,3231.54,905,3231.54a48.64,48.64,0,0,1,13.81.36C929.56,3233.84,928.07,3249.71,917.17,3249.71Z" transform="translate(-460.87 -455)"/><path class="cls-42" d="M732.36,2764.62s-141.11,267.65-163.54,328.76-30.28,112.09-30.59,116.92c-.47,7.55-9.85,14.78-35.71,14.78-13.35,0-19.88-5.35-23.08-10.53a15.05,15.05,0,0,1-.58-14.6c8.17-16.52,34.07-69.31,43.66-93.25,11.46-28.59,36.09-158.13,49.6-203.18s28.79-93.9,87.63-138.9C659.75,2764.62,700.14,2725.05,732.36,2764.62Z" transform="translate(-460.87 -455)"/><path class="cls-43" d="M821.49,2326.05c36.4-154.24-55.81-241.47-55.81-241.47,58.18-55.85,164.19-81.26,164.19-81.26s101.15,74,89.15,131.83c-7,33.93-71.1,203.21-71.1,203.21S888.68,2366.4,821.49,2326.05Z" transform="translate(-460.87 -455)"/><path class="cls-44" d="M740.79,2402.4c14.82-44.62,80.7-76.35,80.7-76.35,67.19,40.35,126.43,12.31,126.43,12.31s13.29,50.78,4.12,98-66.7,350.49-66.7,350.49c-90.65,18.37-230.07-18.48-230.07-18.48C713,2665.84,726,2447,740.79,2402.4Z" transform="translate(-460.87 -455)"/><path class="cls-45" d="M863.74,1901.4l-29.59,132.92c-2.83,11.71,7.84,9.79,19.68,7.56,19.38-3.65,44.37-11.18,52.72-26.27a14.29,14.29,0,0,0,1.51-5l12.72-92.18a16.56,16.56,0,0,0-9.7-17.4l-24.53-10.88A16.57,16.57,0,0,0,863.74,1901.4Z" transform="translate(-460.87 -455)"/><path class="cls-46" d="M898.46,1774.84s35,14.8,58.88,65.44,6,74-16.32,77.24-55.78,2.72-91.14-30S852.9,1757.29,898.46,1774.84Z" transform="translate(-460.87 -455)"/><path class="cls-47" d="M873.65,1860.49s-26.44-74.1,39.25-75l15.46,10.81s24.1-41.08-15.46-60.69-85.86-3.41-102.7,49.88-19.71,89,8.3,114.48,39.55-3.41,39.55-3.41-15.25-23.85-9-36.61,20.53,2.64,20.53,2.64Z" transform="translate(-460.87 -455)"/><path class="cls-48" d="M866.28,1868.74s-13.37-38.17-31.2-23,14.49,35.26,27.15,41.75Z" transform="translate(-460.87 -455)"/><path class="cls-49" d="M1190,1717c1.42,4.51-15,11.37-24.66-7.06-.34-8.84-5.71-46.68-.43-53.88,28.11-38.33,57.8-40.81,57.8-40.81,5.53,10,12.28,18.43,15.44,30.52a37,37,0,0,1-3.7,27.27c-4.64,8.36-11,19.23-17,27.74C1206.18,1716.84,1190,1717,1190,1717Z" transform="translate(-460.87 -455)"/><path class="cls-50" d="M749.32,2125.64s270.69,330.53,472.93-45.82c0,0,3.88-9.62,1.45-23.51-1.22-7,3.41-31.89,6-44.6a7,7,0,0,0-6.23-8.35A9.6,9.6,0,0,0,1215,2007L1178,2054a19.71,19.71,0,0,0,10.45,23.41,9.74,9.74,0,0,1,3.61,14.7c-153.8,201.61-411-19.62-415.75-17C759.65,2084.32,740.35,2094.51,749.32,2125.64Z" transform="translate(-460.87 -455)"/><path class="cls-51" d="M1126.45,1913.76c.42-5.3,5.84-9.89,15-13.57-10-5.5-15.48-11.39-15-17.17,1.41-17.48,56.77-27.28,123.65-21.89s120,23.94,118.55,41.42c-.43,5.3-5.85,9.89-15,13.57,10,5.5,15.48,11.39,15,17.17-.43,5.3-5.85,9.89-15,13.57,10,5.49,15.48,11.38,15,17.16-.43,5.3-5.85,9.89-15,13.57,10,5.5,15.48,11.39,15,17.17-.63,7.73-11.82,14-29.87,18a156.31,156.31,0,0,1-.46,18.89c-2.62,32.21-38.85,57.47-86.78,57.47s-89.4-34.44-89.87-66.75a163.6,163.6,0,0,1,.94-21.09c-22.93-7.66-36.9-17-36.16-26.08.42-5.3,5.84-9.89,15-13.57-10-5.5-15.48-11.39-15-17.17.42-5.3,5.84-9.89,15-13.57C1131.49,1925.43,1126,1919.54,1126.45,1913.76Z" transform="translate(-460.87 -455)"/><path class="cls-3" d="M1281.05,2019.75c19.86,0,38-1.47,53-4.34a1.61,1.61,0,1,0-.6-3.16c-23.5,4.5-54.88,5.49-88.38,2.79-27.4-2.21-53-6.63-74.11-12.78a1.6,1.6,0,0,0-.9,3.08c21.29,6.22,47.14,10.68,74.76,12.91C1257.31,2019.25,1269.46,2019.75,1281.05,2019.75Z" transform="translate(-460.87 -455)"/><path class="cls-3" d="M1280.71,1989c25.81,0,48.87-2.42,65.14-7.06a1.61,1.61,0,1,0-.88-3.09c-23.18,6.6-60.5,8.65-99.85,5.48-38.91-3.14-75.2-11-97.08-21.13a1.61,1.61,0,0,0-1.35,2.92c22.2,10.24,58.91,18.24,98.18,21.41C1257.12,1988.5,1269.19,1989,1280.71,1989Z" transform="translate(-460.87 -455)"/><path class="cls-3" d="M1281,1958.27c27.87,0,52.25-2.85,68.66-8.26a1.6,1.6,0,1,0-1-3c-22.84,7.53-61.56,10-103.58,6.61-38.91-3.13-75.2-11-97.08-21.12a1.61,1.61,0,0,0-1.35,2.92c22.21,10.24,58.91,18.24,98.18,21.41C1257.31,1957.78,1269.48,1958.27,1281,1958.27Z" transform="translate(-460.87 -455)"/><path class="cls-3" d="M1280.83,1927.52c22.1,0,42.21-1.79,57.84-5.26a1.6,1.6,0,1,0-.7-3.13c-23.5,5.22-57.34,6.57-92.85,3.71-38.56-3.11-74.67-10.92-96.58-20.9a1.61,1.61,0,0,0-1.33,2.93c22.23,10.12,58.74,18,97.66,21.17C1257.16,1927,1269.27,1927.52,1280.83,1927.52Z" transform="translate(-460.87 -455)"/><path class="cls-52" d="M1413.54,1758.61a226.17,226.17,0,0,1,40.5-79.08c39.82-50.18,104.77-152.23,112.77-291.51,11.62-202.59-168-304-332-290.25s-325.74,135.85-308,324.32c10.9,116,75.81,203.93,124.13,254.45a268.4,268.4,0,0,1,64.43,114.15c14.51,52.36,49,117.62,131.06,121.6C1352.54,1917.43,1396.63,1818.49,1413.54,1758.61Z" transform="translate(-460.87 -455)"/><path class="cls-53" d="M1219.27,1871.89l-57.37-373.13c-1.18-7.71-5-12.89-8.47-11.57s-5.37,8.65-4.18,16.36c0,.2.07.46.11.66l65.35,369.66c.49,2.78,1.9,4.54,3.15,3.92S1219.68,1874.58,1219.27,1871.89Z" transform="translate(-460.87 -455)"/><path class="cls-54" d="M1278.82,1874.85l57.37-373.13c1.19-7.71,5-12.89,8.47-11.56s5.37,8.64,4.19,16.35c0,.2-.08.46-.11.66l-65.35,369.66c-.49,2.78-1.9,4.54-3.15,3.93S1278.41,1877.54,1278.82,1874.85Z" transform="translate(-460.87 -455)"/><path class="cls-55" d="M1162.32,1466.72a6,6,0,0,1,7.53-2l31.94,14.93,11.09-31.59a6.75,6.75,0,0,1,3.88-3.91c3.68-1.52,8.07-.16,9.82,3l.06.1,26.27,47.9,24.37-68.18,0-.12a7.83,7.83,0,0,1,3.69-4.16c4.09-2.23,9.49-1.16,12.07,2.38l36.72,50.56a4.43,4.43,0,0,1-1.29,6.38,6.17,6.17,0,0,1-7.81-.85l-32.34-36.07L1259.25,1510l0,0a5.11,5.11,0,0,1-2.56,2.52,6.1,6.1,0,0,1-7.62-2l-28.1-45.09-10.57,22.8-.09.21q-.12.24-.27.48a6,6,0,0,1-7.52,2l-37.92-17.71C1161.87,1472,1160.86,1469.06,1162.32,1466.72Z" transform="translate(-460.87 -455)"/><path class="cls-55" d="M1049.66,1631.43a10.27,10.27,0,0,0,8.24-16.4,420.61,420.61,0,0,1-26.42-40.14,10.28,10.28,0,0,0-17.8,10.28,440.28,440.28,0,0,0,27.72,42.11A10.24,10.24,0,0,0,1049.66,1631.43Z" transform="translate(-460.87 -455)"/><path class="cls-55" d="M1002.46,1550.44a10.28,10.28,0,0,0,9.42-14.38c-60.09-138.39-8.36-254.36-7.82-255.51a10.28,10.28,0,0,0-18.69-8.57c-2.32,5.06-56,125.54,7.66,272.27A10.28,10.28,0,0,0,1002.46,1550.44Z" transform="translate(-460.87 -455)"/><path class="cls-56" d="M2433.13,3165.67s5.69,30.5,8.63,60.73a20.85,20.85,0,0,1-19.73,22.77c-40.27,2.06-126.41,6.15-157.34,5.06a6.78,6.78,0,0,1-6.06-9.23,15.19,15.19,0,0,1,7.69-8.25L2408,3170Z" transform="translate(-460.87 -455)"/><path class="cls-57" d="M2437.38,3147.67l-4,36.59s-24.82,11.85-42-1.06l9.93-40.83Z" transform="translate(-460.87 -455)"/><path class="cls-58" d="M2427.57,2460.47c2,9.53,14.6,476.27-33.31,685.94a7.11,7.11,0,0,0,4.25,8.22,123.65,123.65,0,0,0,40.71,7.87,12.24,12.24,0,0,0,12.05-8.89c13.8-48.68,79.83-292.51,86.53-524.9,7.49-259.67-.08-8.84-.08-8.84l-7.38-160.4Z" transform="translate(-460.87 -455)"/><path class="cls-59" d="M2597,3180.05s8.74,15.34,17.45,56.26a12.71,12.71,0,0,1-11,15.33c-13.29,1.44-33.75,3.32-50.16,3.36a12.67,12.67,0,0,1-12.68-14c1.67-15,7.1-39.59,24.4-58.89Z" transform="translate(-460.87 -455)"/><path class="cls-60" d="M2604.12,3133l-9.6,55.37s-9.95,7.55-29.83,2.34l4.27-59.52Z" transform="translate(-460.87 -455)"/><path class="cls-61" d="M2625.2,2472.91c43.16,245.91-3,608.83-19.11,679.93a11.07,11.07,0,0,1-8.86,8.48c-7.46,1.31-19.76,2.44-31.93-1a10.15,10.15,0,0,1-7.38-9.27c-2.79-57.33-2.11-409.45-41.46-548.23a31.53,31.53,0,0,0-12.36-17.32l-74.3-51.77-6.47-84.76Z" transform="translate(-460.87 -455)"/><path class="cls-62" d="M2360.71,2008.71c122.28-3.19,257.55,29.66,257.55,29.66,38.48,212.37,10.74,458,10.74,458-94.44,25.73-201.63-13.26-201.63-13.26-16.59-88.76-92.4-338.28-92.4-338.28-59.82-6.85-109.22-23.62-150-46,30.58-36.14,44.72-81.89,50.79-108.91C2279.16,2002.93,2323,2009.7,2360.71,2008.71Z" transform="translate(-460.87 -455)"/><path class="cls-63" d="M1997.73,1832c11.87-14.63,27.15-7.91,27.15-7.91,18.72,75.85,113.68,136.59,210.91,165.8-6.07,27-20.21,72.77-50.79,108.91C2023.24,2009.88,1997.73,1832,1997.73,1832Z" transform="translate(-460.87 -455)"/><path class="cls-64" d="M2000.68,1835.68c-1.22,4,13.4,10,21.81-6.47.23-7.84,4.67-41.45-.07-47.78-25.26-33.76-74-75.9-74-75.9-8.09,8.14-1.28,16-1.28,16l23.68,24.2c-4.82,8.91-10.73,16.45-13.44,27.2a32.89,32.89,0,0,0,3.51,24.15c4.19,7.38,9.9,17,15.28,24.45C1986.35,1835.71,2000.68,1835.68,2000.68,1835.68Z" transform="translate(-460.87 -455)"/><path class="cls-65" d="M1981.22,1761.48l21.54,17.91,6.89,18-18.85,21.31s-6.75-35.72-11.59-43.42S1976.81,1763.78,1981.22,1761.48Z" transform="translate(-460.87 -455)"/><path class="cls-66" d="M2572.48,2157.24l45.78-118.87s115,76.53,134.7,174.76c-21.57,1.8-60.79,7.79-99.05,27.57C2645,2194.31,2572.48,2157.24,2572.48,2157.24Z" transform="translate(-460.87 -455)"/><path class="cls-67" d="M2473.71,2269.63s128.95,71.26,171.64,8.95c8.86-12.93,10.89-25.73,8.56-37.88,38.26-19.78,77.48-25.77,99.05-27.57,5.95,29.62,3.26,61.2-13.87,93.26-74.49,139.39-282.05-5-282.05-5Z" transform="translate(-460.87 -455)"/><path class="cls-68" d="M2483.64,1908.24l40,112.17a4.06,4.06,0,0,1-1.8,4.9c-10.56,6-48.61,23.28-94.94-5.48a19.1,19.1,0,0,1-8.93-13.55L2404.43,1909Z" transform="translate(-460.87 -455)"/><path class="cls-69" d="M2500.07,2382.25l-70.25-245.31a7.14,7.14,0,0,0-6.05-5.15c-12.73-1.49-49.6-5.66-92.18-9.26-51.29-4.34-110.85-7.85-146.45-4.86a7.17,7.17,0,0,0-5.86,10.33c20.24,40.95,103.49,207.51,145.18,262.08a7.22,7.22,0,0,0,5.79,2.84l163-1.52A7.18,7.18,0,0,0,2500.07,2382.25Z" transform="translate(-460.87 -455)"/><path class="cls-70" d="M2483.09,2323s9.79-40.23,5.84-54.51-11.59-32.63-37.08-28.55-55.56,14.82-55.56,14.82,1.52,18.59,20.89,12.59l-12,9.3s1.72,14.89,18.09,6.93l-11.18,12.33s7,12.23,19.07,4.39S2449,2327.83,2483.09,2323Z" transform="translate(-460.87 -455)"/><path class="cls-3" d="M2336.27,2195.76a20.62,20.62,0,1,1-20.62-20.62A20.62,20.62,0,0,1,2336.27,2195.76Z" transform="translate(-460.87 -455)"/><path class="cls-3" d="M2421.87,2209.36l-14.3-48.52a16.63,16.63,0,0,0-12.5-11.68c-44.82-9.35-167.52-11.33-168.75-11.35l.08-5.48c5.06.08,124.46,2,169.79,11.47a22.12,22.12,0,0,1,16.64,15.49l14.3,48.51Z" transform="translate(-460.87 -455)"/><path class="cls-71" d="M2421.11,1794c-1.4,1.39-58.88,121.15-58.88,121.15l65.15,33.36,70.38-104.91S2444.46,1770.67,2421.11,1794Z" transform="translate(-460.87 -455)"/><path class="cls-72" d="M2468.93,1846.49a11.63,11.63,0,0,1-.78,9.68l-32.49,57.47a10.86,10.86,0,0,1-1.78,2.35c-3.87,3.82-17.11,14.93-27.34-.19-8.72-12.9-16.9-24.62-25.67-29.45-5.12-2.82-11.42-.57-14,4.9-5.35,11.25-15.72,34.2-22.23,56a11.17,11.17,0,0,0,6,13.46c13.2,5.67,39.27,15.92,62.41,19.31a10.13,10.13,0,0,0,9.82-4.43c10-14.47,38-54.9,47.59-65,8.89-9.4,25.31-5.86,32.71-3.6a9.94,9.94,0,0,0,8.3-1.16c7.51-4.79,20.61-16.74,8.62-37a11.44,11.44,0,0,1,3.22-15c8.38-5.85,17.47-16.82,8.81-34.6-8.77-18-24.43-19.61-35.1-18.23a10.69,10.69,0,0,1-11.32-6.68,7,7,0,0,0-5.37-4.48,10.67,10.67,0,0,1-8.16-12.57c1.88-10.18.47-23.41-14.86-32.35-28.11-16.4-52.73,10.32-59,32.87s25.17,38.49,44.94,41.15C2457.77,1820.89,2465.73,1837.7,2468.93,1846.49Z" transform="translate(-460.87 -455)"/><path class="cls-73" d="M2458.24,1931.63s12.5-38.8,28.5-37.37,28.6,18.33,8.77,37.34C2470.84,1955.25,2458.24,1931.63,2458.24,1931.63Z" transform="translate(-460.87 -455)"/></svg>